<?xml version="1.0" encoding="iso-8859-1"?>
<!-- Generator: Adobe Illustrator 19.0.0, SVG Export Plug-In . SVG Version: 6.00 Build 0)  -->
<svg version="1.1"  width="16" height="16" id="Layer_1" xmlns="http://www.w3.org/2000/svg" xmlns:xlink="http://www.w3.org/1999/xlink" x="0px" y="0px"
	 viewBox="0 0 492.308 492.308" style="enable-background:new 0 0 492.308 492.308;" xml:space="preserve">
<g>
	<g>
		<path d="M483.683,14.104c-77.81-9.724-159.79,4.885-237.529,42.096C168.418,18.988,86.412,4.409,8.625,14.104L0,15.181v422.731
			l11.067-1.385c75.327-9.413,155.072,5.183,230.519,42.154l1.237,0.603l3.018,1.791l0.325-0.159l0.444,0.216l3.227-2.014
			l0.811-0.399c75.519-37.019,155.236-51.587,230.591-42.192l11.067,1.385V15.181L483.683,14.104z M236.308,454.431
			c-59.058-26.692-120.351-40.375-180.202-40.375c-12.207,0-24.361,0.567-36.413,1.712V32.671
			c70.966-7.077,145.577,6.856,216.615,40.587V454.431z M472.615,415.767c-71.048-6.683-145.346,6.51-216.615,38.683V73.257
			c71.038-33.731,145.611-47.683,216.615-40.587V415.767z"/>
	</g>
</g>
</svg>
